<svg width="194" height="116" viewBox="0 0 194 116" fill="none" xmlns="http://www.w3.org/2000/svg">
<g filter="url(#filter0_d_2011_649)">
<rect x="24" y="13" width="154.541" height="66.5408" rx="33.2704" fill="white" shape-rendering="crispEdges"/>
<circle cx="57.2704" cy="46.2704" r="21.2704" fill="#FFCC6A"/>
<path d="M57.3955 41.5203C56.4313 41.5203 55.4888 41.8062 54.6871 42.3419C53.8854 42.8776 53.2606 43.639 52.8916 44.5297C52.5226 45.4205 52.4261 46.4007 52.6142 47.3464C52.8023 48.292 53.2666 49.1607 53.9484 49.8425C54.6301 50.5243 55.4988 50.9886 56.4444 51.1767C57.3901 51.3648 58.3703 51.2682 59.2611 50.8992C60.1519 50.5303 60.9132 49.9054 61.4489 49.1037C61.9846 48.302 62.2705 47.3595 62.2705 46.3953C62.2692 45.1028 61.7551 43.8636 60.8412 42.9497C59.9272 42.0357 58.688 41.5217 57.3955 41.5203ZM57.3955 48.8328C56.9134 48.8328 56.4422 48.6899 56.0413 48.422C55.6405 48.1542 55.328 47.7735 55.1436 47.3281C54.9591 46.8827 54.9108 46.3926 55.0048 45.9198C55.0989 45.447 55.331 45.0126 55.6719 44.6718C56.0128 44.3309 56.4471 44.0987 56.92 44.0047C57.3928 43.9106 57.8829 43.9589 58.3283 44.1434C58.7737 44.3279 59.1544 44.6403 59.4222 45.0411C59.6901 45.442 59.833 45.9132 59.833 46.3953C59.833 47.0418 59.5762 47.6618 59.1191 48.1189C58.662 48.576 58.042 48.8328 57.3955 48.8328ZM62.2705 35.4266H52.5205C50.9049 35.4285 49.356 36.0711 48.2137 37.2135C47.0713 38.3559 46.4286 39.9047 46.4268 41.5203V51.2703C46.4286 52.8859 47.0713 54.4348 48.2137 55.5772C49.356 56.7196 50.9049 57.3622 52.5205 57.3641H62.2705C63.8861 57.3622 65.435 56.7196 66.5774 55.5772C67.7198 54.4348 68.3624 52.8859 68.3643 51.2703V41.5203C68.3624 39.9047 67.7198 38.3559 66.5774 37.2135C65.435 36.0711 63.8861 35.4285 62.2705 35.4266ZM65.9268 51.2703C65.9268 52.24 65.5415 53.17 64.8559 53.8557C64.1702 54.5414 63.2402 54.9266 62.2705 54.9266H52.5205C51.5508 54.9266 50.6208 54.5414 49.9351 53.8557C49.2495 53.17 48.8643 52.24 48.8643 51.2703V41.5203C48.8643 40.5506 49.2495 39.6206 49.9351 38.935C50.6208 38.2493 51.5508 37.8641 52.5205 37.8641H62.2705C63.2402 37.8641 64.1702 38.2493 64.8559 38.935C65.5415 39.6206 65.9268 40.5506 65.9268 41.5203V51.2703ZM64.3018 41.1141C64.3018 41.4355 64.2065 41.7496 64.0279 42.0169C63.8493 42.2841 63.5955 42.4924 63.2986 42.6154C63.0017 42.7384 62.675 42.7706 62.3597 42.7079C62.0445 42.6452 61.755 42.4904 61.5277 42.2631C61.3004 42.0359 61.1457 41.7463 61.083 41.4311C61.0203 41.1159 61.0525 40.7891 61.1755 40.4922C61.2984 40.1953 61.5067 39.9415 61.774 39.7629C62.0412 39.5844 62.3554 39.4891 62.6768 39.4891C63.1077 39.4891 63.5211 39.6603 63.8258 39.965C64.1306 40.2698 64.3018 40.6831 64.3018 41.1141Z" fill="#7551DC"/>
<path d="M93.501 44.5344C92.3597 44.5344 91.357 44.3104 90.493 43.8624C89.629 43.4144 88.957 42.7744 88.477 41.9424C87.997 41.1211 87.757 40.1504 87.757 39.0304C87.757 37.8891 87.949 36.8277 88.333 35.8464C88.7277 34.8651 89.277 34.0117 89.981 33.2864C90.6957 32.5504 91.5383 31.9797 92.509 31.5744C93.4903 31.1584 94.573 30.9504 95.757 30.9504C96.9517 30.9504 97.9863 31.1797 98.861 31.6384C99.7463 32.0971 100.429 32.7371 100.909 33.5584C101.4 34.3691 101.645 35.3131 101.645 36.3904C101.645 37.0197 101.57 37.6277 101.421 38.2144C101.272 38.8011 101.042 39.3344 100.733 39.8144C100.434 40.2837 100.072 40.6624 99.645 40.9504C99.2183 41.2277 98.7223 41.3664 98.157 41.3664C97.485 41.3664 96.9943 41.1637 96.685 40.7584C96.3863 40.3531 96.2797 39.8251 96.365 39.1744L96.413 38.6464L96.701 39.2384C96.4343 39.8997 96.013 40.4224 95.437 40.8064C94.8717 41.1797 94.2477 41.3664 93.565 41.3664C92.7757 41.3664 92.1517 41.1264 91.693 40.6464C91.245 40.1557 91.021 39.4891 91.021 38.6464C91.021 38.0597 91.1117 37.4997 91.293 36.9664C91.485 36.4331 91.7463 35.9584 92.077 35.5424C92.4077 35.1157 92.8023 34.7797 93.261 34.5344C93.7303 34.2891 94.2477 34.1664 94.813 34.1664C95.453 34.1664 95.9597 34.3371 96.333 34.6784C96.7063 35.0091 96.9303 35.4944 97.005 36.1344L96.669 36.3424L97.037 34.3264H98.365L97.581 38.8064C97.5063 39.2437 97.5277 39.6011 97.645 39.8784C97.7623 40.1451 98.0077 40.2784 98.381 40.2784C98.7117 40.2784 98.9997 40.1611 99.245 39.9264C99.4903 39.6917 99.6983 39.3877 99.869 39.0144C100.04 38.6304 100.168 38.2144 100.253 37.7664C100.338 37.3184 100.381 36.8811 100.381 36.4544C100.381 35.5371 100.184 34.7531 99.789 34.1024C99.405 33.4517 98.8557 32.9504 98.141 32.5984C97.4263 32.2357 96.573 32.0544 95.581 32.0544C94.621 32.0544 93.741 32.2304 92.941 32.5824C92.141 32.9344 91.4477 33.4251 90.861 34.0544C90.2743 34.6731 89.821 35.3984 89.501 36.2304C89.181 37.0624 89.021 37.9531 89.021 38.9024C89.021 39.8624 89.2077 40.6784 89.581 41.3504C89.965 42.0224 90.509 42.5291 91.213 42.8704C91.9277 43.2224 92.7703 43.3984 93.741 43.3984C94.2103 43.3984 94.6743 43.3504 95.133 43.2544C95.6023 43.1691 96.0343 43.0357 96.429 42.8544L96.701 43.9264C96.2103 44.1291 95.693 44.2784 95.149 44.3744C94.6157 44.4811 94.0663 44.5344 93.501 44.5344ZM94.061 40.1664C94.477 40.1664 94.861 40.0544 95.213 39.8304C95.565 39.5957 95.8583 39.2757 96.093 38.8704C96.3277 38.4544 96.4663 37.9797 96.509 37.4464C96.5517 37.0624 96.5143 36.7157 96.397 36.4064C96.2903 36.0864 96.109 35.8357 95.853 35.6544C95.6077 35.4624 95.2877 35.3664 94.893 35.3664C94.5197 35.3664 94.1783 35.4517 93.869 35.6224C93.5703 35.7931 93.3143 36.0224 93.101 36.3104C92.8983 36.5984 92.7383 36.9237 92.621 37.2864C92.5143 37.6491 92.461 38.0171 92.461 38.3904C92.461 38.9237 92.5943 39.3557 92.861 39.6864C93.1277 40.0064 93.5277 40.1664 94.061 40.1664ZM104.487 41.2704V37.1104L100.791 30.0704H102.599L105.511 35.9904H105.079L107.959 30.0704H109.751L106.087 37.1104V41.2704H104.487ZM112.452 41.4624C111.694 41.4624 111.012 41.2917 110.404 40.9504C109.806 40.5984 109.332 40.1077 108.98 39.4784C108.638 38.8384 108.468 38.0971 108.468 37.2544C108.468 36.4117 108.644 35.6757 108.996 35.0464C109.348 34.4064 109.828 33.9157 110.436 33.5744C111.044 33.2224 111.721 33.0464 112.468 33.0464C113.236 33.0464 113.918 33.2224 114.516 33.5744C115.124 33.9157 115.598 34.4011 115.94 35.0304C116.292 35.6597 116.468 36.4011 116.468 37.2544C116.468 38.0971 116.292 38.8384 115.94 39.4784C115.588 40.1077 115.108 40.5984 114.5 40.9504C113.902 41.2917 113.22 41.4624 112.452 41.4624ZM112.452 40.0864C112.889 40.0864 113.284 39.9851 113.636 39.7824C113.998 39.5691 114.286 39.2491 114.5 38.8224C114.724 38.3957 114.836 37.8731 114.836 37.2544C114.836 36.6251 114.729 36.1024 114.516 35.6864C114.302 35.2597 114.014 34.9451 113.652 34.7424C113.3 34.5291 112.91 34.4224 112.484 34.4224C112.068 34.4224 111.673 34.5291 111.3 34.7424C110.937 34.9451 110.644 35.2597 110.42 35.6864C110.206 36.1024 110.1 36.6251 110.1 37.2544C110.1 37.8731 110.206 38.3957 110.42 38.8224C110.644 39.2491 110.932 39.5691 111.284 39.7824C111.646 39.9851 112.036 40.0864 112.452 40.0864ZM120.318 41.4624C119.689 41.4624 119.145 41.3344 118.686 41.0784C118.227 40.8224 117.87 40.4384 117.614 39.9264C117.369 39.4037 117.246 38.7531 117.246 37.9744V33.2384H118.846V37.8144C118.846 38.5717 119.006 39.1424 119.326 39.5264C119.657 39.9104 120.131 40.1024 120.75 40.1024C121.177 40.1024 121.555 40.0011 121.886 39.7984C122.227 39.5957 122.494 39.3024 122.686 38.9184C122.878 38.5344 122.974 38.0651 122.974 37.5104V33.2384H124.574V41.2704H123.15L123.038 39.8944C122.793 40.3744 122.43 40.7584 121.95 41.0464C121.481 41.3237 120.937 41.4624 120.318 41.4624ZM125.789 41.2704V33.2384H127.229L127.373 34.7584C127.554 34.3957 127.784 34.0917 128.061 33.8464C128.349 33.5904 128.685 33.3931 129.069 33.2544C129.464 33.1157 129.906 33.0464 130.397 33.0464V34.7264H129.869C129.528 34.7264 129.208 34.7691 128.909 34.8544C128.61 34.9397 128.344 35.0784 128.109 35.2704C127.885 35.4624 127.709 35.7237 127.581 36.0544C127.453 36.3851 127.389 36.7957 127.389 37.2864V41.2704H125.789ZM135.931 41.4624C134.832 41.4624 133.883 41.2224 133.083 40.7424C132.283 40.2517 131.664 39.5744 131.227 38.7104C130.8 37.8357 130.587 36.8224 130.587 35.6704C130.587 34.5291 130.8 33.5211 131.227 32.6464C131.664 31.7717 132.283 31.0944 133.083 30.6144C133.883 30.1237 134.832 29.8784 135.931 29.8784C137.232 29.8784 138.293 30.1931 139.115 30.8224C139.936 31.4517 140.453 32.3371 140.667 33.4784H138.923C138.752 32.8171 138.416 32.2891 137.915 31.8944C137.424 31.4997 136.757 31.3024 135.915 31.3024C135.168 31.3024 134.512 31.4784 133.947 31.8304C133.392 32.1824 132.965 32.6837 132.667 33.3344C132.368 33.9851 132.219 34.7637 132.219 35.6704C132.219 36.5771 132.368 37.3611 132.667 38.0224C132.965 38.6731 133.392 39.1744 133.947 39.5264C134.512 39.8677 135.168 40.0384 135.915 40.0384C136.757 40.0384 137.424 39.8517 137.915 39.4784C138.416 39.0944 138.747 38.5771 138.907 37.9264H140.667C140.453 39.0357 139.936 39.9051 139.115 40.5344C138.293 41.1531 137.232 41.4624 135.931 41.4624ZM145.221 41.4624C144.464 41.4624 143.781 41.2917 143.173 40.9504C142.576 40.5984 142.101 40.1077 141.749 39.4784C141.408 38.8384 141.237 38.0971 141.237 37.2544C141.237 36.4117 141.413 35.6757 141.765 35.0464C142.117 34.4064 142.597 33.9157 143.205 33.5744C143.813 33.2224 144.49 33.0464 145.237 33.0464C146.005 33.0464 146.688 33.2224 147.285 33.5744C147.893 33.9157 148.368 34.4011 148.709 35.0304C149.061 35.6597 149.237 36.4011 149.237 37.2544C149.237 38.0971 149.061 38.8384 148.709 39.4784C148.357 40.1077 147.877 40.5984 147.269 40.9504C146.672 41.2917 145.989 41.4624 145.221 41.4624ZM145.221 40.0864C145.658 40.0864 146.053 39.9851 146.405 39.7824C146.768 39.5691 147.056 39.2491 147.269 38.8224C147.493 38.3957 147.605 37.8731 147.605 37.2544C147.605 36.6251 147.498 36.1024 147.285 35.6864C147.072 35.2597 146.784 34.9451 146.421 34.7424C146.069 34.5291 145.68 34.4224 145.253 34.4224C144.837 34.4224 144.442 34.5291 144.069 34.7424C143.706 34.9451 143.413 35.2597 143.189 35.6864C142.976 36.1024 142.869 36.6251 142.869 37.2544C142.869 37.8731 142.976 38.3957 143.189 38.8224C143.413 39.2491 143.701 39.5691 144.053 39.7824C144.416 39.9851 144.805 40.0864 145.221 40.0864Z" fill="#121212"/>
<path d="M88.257 59.2704V51.9984L86.901 52.2984V51.6024L88.593 50.8704H89.277V59.2704H88.257ZM90.5581 59.2704V58.5624C91.1261 58.1144 91.6621 57.6624 92.1661 57.2064C92.6781 56.7424 93.1301 56.2864 93.5221 55.8384C93.9221 55.3904 94.2341 54.9504 94.4581 54.5184C94.6901 54.0864 94.8061 53.6704 94.8061 53.2704C94.8061 52.9744 94.7541 52.6984 94.6501 52.4424C94.5541 52.1864 94.3941 51.9824 94.1701 51.8304C93.9461 51.6704 93.6421 51.5904 93.2581 51.5904C92.8901 51.5904 92.5821 51.6744 92.3341 51.8424C92.0861 52.0024 91.8981 52.2184 91.7701 52.4904C91.6501 52.7624 91.5901 53.0544 91.5901 53.3664H90.6181C90.6181 52.8144 90.7341 52.3424 90.9661 51.9504C91.1981 51.5504 91.5141 51.2464 91.9141 51.0384C92.3141 50.8304 92.7661 50.7264 93.2701 50.7264C94.0141 50.7264 94.6221 50.9384 95.0941 51.3624C95.5741 51.7784 95.8141 52.4024 95.8141 53.2344C95.8141 53.7304 95.6901 54.2224 95.4421 54.7104C95.1941 55.1904 94.8781 55.6584 94.4941 56.1144C94.1101 56.5624 93.6981 56.9824 93.2581 57.3744C92.8261 57.7664 92.4221 58.1184 92.0461 58.4304H96.1021V59.2704H90.5581ZM97.1973 59.2704V50.8704H98.2053V54.6744L101.709 50.8704H102.981L99.8613 54.2184L103.029 59.2704H101.805L99.1413 54.9984L98.2053 55.9944V59.2704H97.1973ZM106.637 59.2704V50.8704H111.749V51.6984H107.645V54.6504H111.137V55.4664H107.645V59.2704H106.637ZM115.082 59.4144C114.522 59.4144 114.018 59.2864 113.57 59.0304C113.122 58.7744 112.766 58.4144 112.502 57.9504C112.246 57.4784 112.118 56.9264 112.118 56.2944C112.118 55.6624 112.25 55.1144 112.514 54.6504C112.778 54.1784 113.134 53.8144 113.582 53.5584C114.038 53.3024 114.546 53.1744 115.106 53.1744C115.666 53.1744 116.17 53.3024 116.618 53.5584C117.066 53.8144 117.418 54.1784 117.674 54.6504C117.938 55.1144 118.07 55.6624 118.07 56.2944C118.07 56.9264 117.938 57.4784 117.674 57.9504C117.41 58.4144 117.05 58.7744 116.594 59.0304C116.146 59.2864 115.642 59.4144 115.082 59.4144ZM115.082 58.5504C115.426 58.5504 115.746 58.4664 116.042 58.2984C116.338 58.1304 116.578 57.8784 116.762 57.5424C116.946 57.2064 117.038 56.7904 117.038 56.2944C117.038 55.7984 116.946 55.3824 116.762 55.0464C116.586 54.7104 116.35 54.4584 116.054 54.2904C115.758 54.1224 115.442 54.0384 115.106 54.0384C114.762 54.0384 114.442 54.1224 114.146 54.2904C113.85 54.4584 113.61 54.7104 113.426 55.0464C113.242 55.3824 113.15 55.7984 113.15 56.2944C113.15 56.7904 113.242 57.2064 113.426 57.5424C113.61 57.8784 113.846 58.1304 114.134 58.2984C114.43 58.4664 114.746 58.5504 115.082 58.5504ZM119.111 59.2704V50.6304H120.119V59.2704H119.111ZM121.412 59.2704V50.6304H122.42V59.2704H121.412ZM126.424 59.4144C125.864 59.4144 125.36 59.2864 124.912 59.0304C124.464 58.7744 124.108 58.4144 123.844 57.9504C123.588 57.4784 123.46 56.9264 123.46 56.2944C123.46 55.6624 123.592 55.1144 123.856 54.6504C124.12 54.1784 124.476 53.8144 124.924 53.5584C125.38 53.3024 125.888 53.1744 126.448 53.1744C127.008 53.1744 127.512 53.3024 127.96 53.5584C128.408 53.8144 128.76 54.1784 129.016 54.6504C129.28 55.1144 129.412 55.6624 129.412 56.2944C129.412 56.9264 129.28 57.4784 129.016 57.9504C128.752 58.4144 128.392 58.7744 127.936 59.0304C127.488 59.2864 126.984 59.4144 126.424 59.4144ZM126.424 58.5504C126.768 58.5504 127.088 58.4664 127.384 58.2984C127.68 58.1304 127.92 57.8784 128.104 57.5424C128.288 57.2064 128.38 56.7904 128.38 56.2944C128.38 55.7984 128.288 55.3824 128.104 55.0464C127.928 54.7104 127.692 54.4584 127.396 54.2904C127.1 54.1224 126.784 54.0384 126.448 54.0384C126.104 54.0384 125.784 54.1224 125.488 54.2904C125.192 54.4584 124.952 54.7104 124.768 55.0464C124.584 55.3824 124.492 55.7984 124.492 56.2944C124.492 56.7904 124.584 57.2064 124.768 57.5424C124.952 57.8784 125.188 58.1304 125.476 58.2984C125.772 58.4664 126.088 58.5504 126.424 58.5504ZM131.431 59.2704L129.691 53.3184H130.699L131.959 57.9864L133.351 53.3184H134.491L135.895 57.9864L137.143 53.3184H138.163L136.423 59.2704H135.391L133.927 54.3624L132.463 59.2704H131.431ZM141.371 59.4144C140.803 59.4144 140.299 59.2864 139.859 59.0304C139.419 58.7664 139.071 58.4024 138.815 57.9384C138.567 57.4744 138.443 56.9264 138.443 56.2944C138.443 55.6704 138.567 55.1264 138.815 54.6624C139.063 54.1904 139.407 53.8264 139.847 53.5704C140.295 53.3064 140.811 53.1744 141.395 53.1744C141.971 53.1744 142.467 53.3064 142.883 53.5704C143.307 53.8264 143.631 54.1664 143.855 54.5904C144.079 55.0144 144.191 55.4704 144.191 55.9584C144.191 56.0464 144.187 56.1344 144.179 56.2224C144.179 56.3104 144.179 56.4104 144.179 56.5224H139.439C139.463 56.9784 139.567 57.3584 139.751 57.6624C139.943 57.9584 140.179 58.1824 140.459 58.3344C140.747 58.4864 141.051 58.5624 141.371 58.5624C141.787 58.5624 142.135 58.4664 142.415 58.2744C142.695 58.0824 142.899 57.8224 143.027 57.4944H144.023C143.863 58.0464 143.555 58.5064 143.099 58.8744C142.651 59.2344 142.075 59.4144 141.371 59.4144ZM141.371 54.0264C140.891 54.0264 140.463 54.1744 140.087 54.4704C139.719 54.7584 139.507 55.1824 139.451 55.7424H143.195C143.171 55.2064 142.987 54.7864 142.643 54.4824C142.299 54.1784 141.875 54.0264 141.371 54.0264ZM145.167 59.2704V53.3184H146.079L146.163 54.4584C146.347 54.0664 146.627 53.7544 147.003 53.5224C147.379 53.2904 147.843 53.1744 148.395 53.1744V54.2304H148.119C147.767 54.2304 147.443 54.2944 147.147 54.4224C146.851 54.5424 146.615 54.7504 146.439 55.0464C146.263 55.3424 146.175 55.7504 146.175 56.2704V59.2704H145.167ZM151.446 59.4144C150.734 59.4144 150.142 59.2344 149.67 58.8744C149.198 58.5144 148.922 58.0264 148.842 57.4104H149.874C149.938 57.7224 150.102 57.9944 150.366 58.2264C150.638 58.4504 151.002 58.5624 151.458 58.5624C151.882 58.5624 152.194 58.4744 152.394 58.2984C152.594 58.1144 152.694 57.8984 152.694 57.6504C152.694 57.2904 152.562 57.0504 152.298 56.9304C152.042 56.8104 151.678 56.7024 151.206 56.6064C150.886 56.5424 150.566 56.4504 150.246 56.3304C149.926 56.2104 149.658 56.0424 149.442 55.8264C149.226 55.6024 149.118 55.3104 149.118 54.9504C149.118 54.4304 149.31 54.0064 149.694 53.6784C150.086 53.3424 150.614 53.1744 151.278 53.1744C151.91 53.1744 152.426 53.3344 152.826 53.6544C153.234 53.9664 153.47 54.4144 153.534 54.9984H152.538C152.498 54.6944 152.366 54.4584 152.142 54.2904C151.926 54.1144 151.634 54.0264 151.266 54.0264C150.906 54.0264 150.626 54.1024 150.426 54.2544C150.234 54.4064 150.138 54.6064 150.138 54.8544C150.138 55.0944 150.262 55.2824 150.51 55.4184C150.766 55.5544 151.11 55.6704 151.542 55.7664C151.91 55.8464 152.258 55.9464 152.586 56.0664C152.922 56.1784 153.194 56.3504 153.402 56.5824C153.618 56.8064 153.726 57.1344 153.726 57.5664C153.734 58.1024 153.53 58.5464 153.114 58.8984C152.706 59.2424 152.15 59.4144 151.446 59.4144Z" fill="#9E9E9E"/>
</g>
<defs>
<filter id="filter0_d_2011_649" x="-10.2351" y="0.284117" width="203.448" height="115.448" filterUnits="userSpaceOnUse" color-interpolation-filters="sRGB">
<feFlood flood-opacity="0" result="BackgroundImageFix"/>
<feColorMatrix in="SourceAlpha" type="matrix" values="0 0 0 0 0 0 0 0 0 0 0 0 0 0 0 0 0 0 127 0" result="hardAlpha"/>
<feOffset dx="-9.78145" dy="11.7377"/>
<feGaussianBlur stdDeviation="12.2268"/>
<feComposite in2="hardAlpha" operator="out"/>
<feColorMatrix type="matrix" values="0 0 0 0 0.384371 0 0 0 0 0.102708 0 0 0 0 0.483333 0 0 0 0.05 0"/>
<feBlend mode="normal" in2="BackgroundImageFix" result="effect1_dropShadow_2011_649"/>
<feBlend mode="normal" in="SourceGraphic" in2="effect1_dropShadow_2011_649" result="shape"/>
</filter>
</defs>
</svg>
